PathFileType	4	(X/Y/Z)	C:\Users\86182\Documents\cortex\Trimmed_M3_H12.trc
DataRate	CameraRate	NumFrames	NumMarkers	Units	OrigDataRate	OrigDataStartFrame	OrigNumFrames
100.00	100.00	       70	2	mm	100.00	681	       851
Frame#	Time	gripper			box			
		X1	Y1	Z1	X2	Y2	Z2	

681	6.800	267.82413	173.03854	292.26279	267.52255	170.23819	156.07771	
682	6.810	267.82394	173.03838	292.26300	267.52267	170.23802	156.07774	
683	6.820	267.82382	173.03841	292.26254	267.52203	170.23869	156.07785	
684	6.830	267.82382	173.03856	292.26184	267.52060	170.24020	156.07814	
685	6.840	267.82394	173.03876	292.26123	267.51849	170.24234	156.07857	
686	6.850	267.82422	173.03896	292.26096	267.51614	170.24484	156.07903	
687	6.860	267.82455	173.03909	292.26105	267.51392	170.24739	156.07930	
688	6.870	267.82492	173.03917	292.26141	267.51221	170.24969	156.07930	
689	6.880	267.82523	173.03918	292.26196	267.51108	170.25151	156.07909	
690	6.890	267.82562	173.03917	292.26254	267.51053	170.25272	156.07877	
691	6.900	267.82623	173.03918	292.26300	267.51050	170.25328	156.07848	
692	6.910	267.82718	173.03929	292.26318	267.51080	170.25333	156.07825	
693	6.920	267.82846	173.03960	292.26294	267.51132	170.25293	156.07806	
694	6.930	267.82993	173.04013	292.26221	267.51190	170.25232	156.07797	
695	6.940	267.83121	173.04089	292.26083	267.51227	170.25183	156.07797	
696	6.950	267.83194	173.04179	292.25882	267.51218	170.25182	156.07806	
697	6.960	267.83197	173.04276	292.25647	267.51157	170.25240	156.07822	
698	6.970	267.83139	173.04364	292.25415	267.51056	170.25343	156.07837	
699	6.980	267.83041	173.04434	292.25238	267.50949	170.25462	156.07846	
700	6.990	267.82928	173.04474	292.25134	267.50864	170.25562	156.07846	
701	7.000	267.82822	173.04477	292.25098	267.50815	170.25620	156.07838	
702	7.010	267.82748	173.04453	292.25092	267.50812	170.25629	156.07826	
703	7.020	267.82715	173.04413	292.25098	267.50842	170.25600	156.07813	
704	7.030	267.82712	173.04373	292.25098	267.50879	170.25563	156.07799	
705	7.040	267.82727	173.04337	292.25104	267.50891	170.25552	156.07794	
706	7.050	267.82745	173.04306	292.25122	267.50861	170.25586	156.07797	
707	7.060	267.82761	173.04277	292.25177	267.50797	170.25656	156.07808	
708	7.070	267.82767	173.04253	292.25272	267.50720	170.25739	156.07820	
709	7.080	267.82751	173.04236	292.25397	267.50644	170.25822	156.07834	
710	7.090	267.82712	173.04230	292.25537	267.50568	170.25905	156.07846	
711	7.100	267.82645	173.04243	292.25668	267.50516	170.25966	156.07855	
712	7.110	267.82553	173.04274	292.25787	267.50500	170.25986	156.07860	
713	7.120	267.82465	173.04315	292.25891	267.50531	170.25960	156.07855	
714	7.130	267.82404	173.04353	292.25977	267.50586	170.25909	156.07849	
715	7.140	267.82391	173.04375	292.26013	267.50650	170.25850	156.07840	
716	7.150	267.82434	173.04372	292.25974	267.50714	170.25793	156.07831	
717	7.160	267.82504	173.04355	292.25854	267.50769	170.25743	156.07823	
718	7.170	267.82571	173.04332	292.25690	267.50803	170.25710	156.07819	
719	7.180	267.82632	173.04311	292.25537	267.50812	170.25700	156.07819	
720	7.190	267.82678	173.04291	292.25415	267.50793	170.25719	156.07822	
721	7.200	267.82709	173.04272	292.25348	267.50751	170.25761	156.07831	
722	7.210	267.82730	173.04248	292.25342	267.50693	170.25818	156.07843	
723	7.220	267.82742	173.04213	292.25403	267.50635	170.25865	156.07857	
724	7.230	267.82755	173.04175	292.25513	267.50598	170.25882	156.07869	
725	7.240	267.82782	173.04143	292.25647	267.50595	170.25861	156.07878	
726	7.250	267.82831	173.04128	292.25769	267.50616	170.25813	156.07884	
727	7.260	267.82889	173.04138	292.25848	267.50662	170.25746	156.07884	
728	7.270	267.82932	173.04176	292.25858	267.50726	170.25670	156.07874	
729	7.280	267.82941	173.04239	292.25784	267.50797	170.25598	156.07855	
730	7.290	267.82904	173.04321	292.25632	267.50864	170.25539	156.07834	
731	7.300	267.82849	173.04411	292.25421	267.50916	170.25494	156.07816	
732	7.310	267.82797	173.04494	292.25198	267.50943	170.25467	156.07808	
733	7.320	267.82776	173.04546	292.25012	267.50952	170.25446	156.07816	
734	7.330	267.82785	173.04552	292.24902	267.50940	170.25427	156.07843	
735	7.340	267.82806	173.04518	292.24884	267.50900	170.25420	156.07892	
736	7.350	267.82809	173.04454	292.24951	267.50830	170.25429	156.07956	
737	7.360	267.82788	173.04375	292.25092	267.50745	170.25444	156.08029	
738	7.370	267.82751	173.04291	292.25269	267.50681	170.25449	156.08092	
739	7.380	267.82709	173.04213	292.25452	267.50674	170.25420	156.08121	
740	7.390	267.82672	173.04150	292.25604	267.50748	170.25337	156.08112	
741	7.400	267.82642	173.04100	292.25729	267.50894	170.25197	156.08072	
742	7.410	267.82611	173.04057	292.25836	267.51074	170.25037	156.08017	
743	7.420	267.82581	173.04019	292.25943	267.51224	170.24911	156.07962	
744	7.430	267.82559	173.03986	292.26047	267.51306	170.24860	156.07919	
745	7.440	267.82556	173.03964	292.26129	267.51315	170.24884	156.07890	
746	7.450	267.82568	173.03957	292.26178	267.51285	170.24956	156.07867	
747	7.460	267.82587	173.03955	292.26202	267.51251	170.25031	156.07841	
748	7.470	267.82590	173.03954	292.26208	267.51242	170.25078	156.07814	
749	7.480	267.82562	173.03946	292.26215	267.51254	170.25082	156.07796	
750	7.490	267.82507	173.03928	292.26233	267.51288	170.25038	156.07796	
